Title                            : Paranormal Activity
Year                             : 2007
Genre                            : Horror | Mystery | Thriller
iMDB URL                         : http://www.imdb.com/title/tt1179904/
Awards                           : 2 wins & 2 nominations

Complete name                    : Paranormal.Activity.BRRIP.H264-ZEKTORM.mp4
Format                           : MPEG-4
Format profile                   : Base Media
Codec ID                         : isom
File size                        : 1.37 GiB
Duration                         : 1h 26mn
Overall bit rate                 : 2268 Kbps
Subtitles                        : English (Format: srt)

Video
Format                           : AVC
Format/Info                      : Advanced Video Codec
Format profile                   : High@L4.1
Format settings, CABAC           : Yes
Format settings, ReFrames        : 8 frames
Codec ID                         : avc1
Codec ID/Info                    : Advanced Video Coding
Duration                         : 1h 26mn
Bit rate mode                    : Variable
Bit rate                         : 2012 Kbps
Width                            : 1280 pixels
Height                           : 720 pixels
Display aspect ratio             : 16/9
Frame rate mode                  : Constant
Frame rate                       : 23.976 fps
Resolution                       : 24 bits
Colorimetry                      : 4:2:0
Scan type                        : Progressive
Bits/(Pixel*Frame)               : 0.091
Stream size                      : 1.21 GiB (89%)
Title                            : Video
Writing library                  : x264

Audio #1
Format                           : AAC
Format/Info                      : Advanced Audio Codec
Format version                   : Version 4
Format profile                   : LC
Format settings, SBR             : Yes
Format settings, PS              : No
Codec ID                         : 40
Duration                         : 1h 26mn
Bit rate mode                    : Variable
Bit rate                         : 186 Kbps
Maximum bit rate                 : 228 Kbps
Channel(s)                       : 6 channels
Channel positions                : Front: L C R, Rear: L R, LFE
Sampling rate                    : 48.0 KHz
Resolution                       : 16 bits
Stream size                      : 115 MiB (8%)
Title                            : English
Language                         : English

Audio #2
Format                           : AAC
Format/Info                      : Advanced Audio Codec
Format version                   : Version 4
Format profile                   : LC
Format settings, SBR             : Yes
Format settings, PS              : No
Codec ID                         : 40
Duration                         : 1h 26mn
Bit rate mode                    : Variable
Bit rate                         : 66.15 Kbps
Maximum bit rate                 : 89.1 Kbps
Channel(s)                       : 2 channels
Channel positions                : L R
Sampling rate                    : 48.0 KHz
Resolution                       : 16 bits
Stream size                      : 40.7 MiB (3%)
Title                            : English
Language                         : English
